<svg xmlns="http://www.w3.org/2000/svg" viewBox="0 0 114 114"><title>favicon</title><path d="M105.41,2H86L83.24,5.91h8.09a1.78,1.78,0,0,0-.23.83,1.86,1.86,0,0,0,.07.34H82.42L80.73,9.47h8.08a1.77,1.77,0,0,0-.38,1,.53.53,0,0,0,0,.12H79.92L58.48,41.09,47.55,23.55H27.69L48.18,54.18,14,104.48h8a1.61,1.61,0,0,0-.08.38,1.75,1.75,0,0,0,.21.79H13.17L11.54,108h7.81a1.73,1.73,0,0,0-.12.6,1.81,1.81,0,0,0,.12.57H10.74l-2.33,3.45H27.82l2.3-3.45h-7.5a1.81,1.81,0,0,0,.12-.57,1.73,1.73,0,0,0-.12-.6H30.9l1.59-2.39H25.2a1.75,1.75,0,0,0,.21-.79,1.61,1.61,0,0,0-.08-.38h7.94L58.22,67,70.15,85.86H90l-21.36-32L99.29,10.64H91.91s0-.08,0-.12a1.71,1.71,0,0,0-.38-1h8.56l1.71-2.39H94.53a1.28,1.28,0,0,0,.07-.34,1.67,1.67,0,0,0-.23-.83h8.28Z" style="fill:#00aeef"/></svg>