<svg xmlns="http://www.w3.org/2000/svg" viewBox="0 0 110.24 36.77"><title>logo</title><path d="M14.17,6.94H8.69L0,27.57H5.94l1.47-3.69h7.93l1.46,3.69h6.08ZM9.07,19.46l2.32-5.79,2.28,5.79Z" style="fill:#004563"/><polygon points="58.98 17.06 65.71 7.08 59.33 7.08 55.64 12.85 52.05 7.08 45.52 7.08 52.25 17.15 45.23 27.57 51.61 27.57 55.56 21.36 59.48 27.57 66 27.57 58.98 17.06" style="fill:#004563"/><path d="M77,6.67A10.74,10.74,0,0,0,65.91,17.32v.06A11,11,0,0,0,88,17.32v-.05A10.64,10.64,0,0,0,77,6.67m5.18,10.71A5.23,5.23,0,0,1,77,22.86a5.33,5.33,0,0,1-5.27-5.54v-.05a5.23,5.23,0,1,1,10.45.05Z" style="fill:#004563"/><polygon points="104.62 7.08 104.62 17.91 96.2 7.08 90.9 7.08 90.9 27.57 96.52 27.57 96.52 16.33 105.3 27.57 110.24 27.57 110.24 7.08 104.62 7.08" style="fill:#004563"/><path d="M49.65,0H43.27l-.91,1.29H45a.61.61,0,0,0-.08.27.45.45,0,0,0,0,.11H42.09l-.55.79h2.65a.56.56,0,0,0-.12.34.06.06,0,0,0,0,0H41.27l-7.05,10L30.63,7.08H24.1l6.73,10.07L19.59,33.69h2.63a.51.51,0,0,0,0,.13.51.51,0,0,0,.06.25H19.32l-.53.79h2.57a.65.65,0,0,0,0,.2.53.53,0,0,0,0,.18H18.53l-.77,1.14h6.38l.76-1.14H22.43a.53.53,0,0,0,0-.18.65.65,0,0,0,0-.2h2.72l.53-.79h-2.4a.52.52,0,0,0,.07-.25.5.5,0,0,0,0-.13h2.61l8.21-12.33,3.92,6.21h6.52l-7-10.51L47.64,2.84H45.21s0,0,0,0a.51.51,0,0,0-.13-.34h2.82l.56-.79h-2.4a.45.45,0,0,0,0-.11A.61.61,0,0,0,46,1.29h2.72Z" style="fill:#00aeef"/><path d="M32.65,35.17H38v1.6H31.05V29.86h1.6Z" style="fill:#00aeef"/><path d="M40.49,32.52a2.35,2.35,0,0,1,2.65-2.66h1.6a2.35,2.35,0,0,1,2.65,2.66v1.59a2.35,2.35,0,0,1-2.65,2.66h-1.6a2.35,2.35,0,0,1-2.65-2.66Zm2.65-1.06a.94.94,0,0,0-1.06,1.06v1.59a.94.94,0,0,0,1.06,1.06h1.6a.93.93,0,0,0,1.06-1.06V32.52a.93.93,0,0,0-1.06-1.06Z" style="fill:#00aeef"/><path d="M53.75,29.86H58v1.6H53.75a.93.93,0,0,0-1.06,1.06v1.59a.93.93,0,0,0,1.06,1.06h2.66V34.11H54.28V32.52H58v4.25H53.75a2.35,2.35,0,0,1-2.65-2.66V32.52A2.35,2.35,0,0,1,53.75,29.86Z" style="fill:#00aeef"/><path d="M61.41,36.77V29.86H63v6.91Z" style="fill:#00aeef"/><path d="M71.64,36.77H66.86v-1.6h4.78a.53.53,0,0,0,0-1.06H69A1.88,1.88,0,0,1,66.86,32,1.88,1.88,0,0,1,69,29.86h4.78v1.6H69a.53.53,0,1,0,0,1.06h2.66a1.88,1.88,0,0,1,2.12,2.12A1.88,1.88,0,0,1,71.64,36.77Z" style="fill:#00aeef"/><path d="M79.68,31.46H77v-1.6h6.9v1.6H81.27v5.31H79.68Z" style="fill:#00aeef"/><path d="M87.34,36.77V29.86h1.59v6.91Z" style="fill:#00aeef"/><path d="M95.3,35.17h4.24v1.6H95.3a2.35,2.35,0,0,1-2.66-2.66V32.52a2.35,2.35,0,0,1,2.66-2.66h4.24v1.6H95.3a.94.94,0,0,0-1.07,1.06v1.59A.94.94,0,0,0,95.3,35.17Z" style="fill:#00aeef"/><path d="M107.73,36.77H103v-1.6h4.77a.53.53,0,1,0,0-1.06h-2.65A1.87,1.87,0,0,1,103,32a1.88,1.88,0,0,1,2.12-2.13h4.78v1.6h-4.78a.53.53,0,0,0,0,1.06h2.65a1.88,1.88,0,0,1,2.13,2.12A1.88,1.88,0,0,1,107.73,36.77Z" style="fill:#00aeef"/></svg>