<svg xmlns="http://www.w3.org/2000/svg" viewBox="0 0 140.22 46.77"><title>logo-white</title><path d="M18,8.82h-7L0,35.07H7.56l1.86-4.69H19.51l1.86,4.69h7.74ZM11.54,24.76l2.94-7.38,2.9,7.38Z" style="fill:#fff"/><polygon points="75.02 21.7 83.58 9.01 75.47 9.01 70.78 16.34 66.2 9.01 57.9 9.01 66.46 21.82 57.52 35.07 65.64 35.07 70.67 27.18 75.65 35.07 83.95 35.07 75.02 21.7" style="fill:#fff"/><path d="M97.91,8.49c-8,0-14.07,6.07-14.07,13.55v.07c0,7.48,6,13.48,14,13.48S111.9,29.52,111.9,22V22c0-7.49-6-13.48-14-13.48m6.59,13.62a6.65,6.65,0,0,1-6.59,7,6.78,6.78,0,0,1-6.7-7V22a6.65,6.65,0,0,1,6.63-7,6.73,6.73,0,0,1,6.66,7Z" style="fill:#fff"/><polygon points="133.07 9.01 133.07 22.78 122.36 9.01 115.62 9.01 115.62 35.07 122.77 35.07 122.77 20.77 133.94 35.07 140.22 35.07 140.22 9.01 133.07 9.01" style="fill:#fff"/><path d="M63.15,0H55L53.88,1.64h3.39a.65.65,0,0,0-.1.34.58.58,0,0,0,0,.14H53.54l-.71,1h3.38a.79.79,0,0,0-.16.44.43.43,0,0,0,0,0H52.49l-9,12.73L39,9H30.65l8.57,12.81-14.3,21h3.35a.53.53,0,0,0,0,.16.74.74,0,0,0,.09.33H24.58l-.68,1h3.27a.7.7,0,0,0-.05.25.86.86,0,0,0,0,.24H23.57l-1,1.44h8.12l1-1.44H28.53a.6.6,0,0,0,0-.24.7.7,0,0,0,0-.25H32l.67-1h-3A.74.74,0,0,0,29.7,43a1.1,1.1,0,0,0,0-.16H33L43.42,27.18l5,7.89h8.3L47.78,21.7,60.6,3.61H57.51a.43.43,0,0,0,0,0,.79.79,0,0,0-.16-.44h3.58l.71-1h-3a.59.59,0,0,0,0-.14.75.75,0,0,0-.09-.34H62Z" style="fill:#00aeef"/><path d="M41.53,44.74h6.75v2H39.5V38h2Z" style="fill:#00aeef"/><path d="M51.5,41.36Q51.5,38,54.88,38h2q3.38,0,3.37,3.37v2q0,3.38-3.37,3.38h-2q-3.37,0-3.38-3.38ZM54.88,40a1.19,1.19,0,0,0-1.35,1.35v2a1.19,1.19,0,0,0,1.35,1.35h2a1.19,1.19,0,0,0,1.35-1.35v-2A1.19,1.19,0,0,0,56.91,40Z" style="fill:#00aeef"/><path d="M68.37,38h5.41v2H68.37A1.19,1.19,0,0,0,67,41.36v2a1.19,1.19,0,0,0,1.35,1.35h3.38V43.39h-2.7v-2h4.73v5.41H68.37Q65,46.77,65,43.39v-2Q65,38,68.37,38Z" style="fill:#00aeef"/><path d="M78.12,46.77V38h2v8.78Z" style="fill:#00aeef"/><path d="M91.12,46.77H85v-2h6.08a.68.68,0,1,0,0-1.35H87.74a2.39,2.39,0,0,1-2.7-2.7,2.39,2.39,0,0,1,2.7-2.7h6.08v2H87.74a.6.6,0,0,0-.67.68.59.59,0,0,0,.67.67h3.38a2.39,2.39,0,0,1,2.7,2.7A2.39,2.39,0,0,1,91.12,46.77Z" style="fill:#00aeef"/><path d="M101.35,40H98V38h8.78v2h-3.38v6.76h-2Z" style="fill:#00aeef"/><path d="M111.1,46.77V38h2v8.78Z" style="fill:#00aeef"/><path d="M121.21,44.74h5.41v2h-5.41q-3.37,0-3.37-3.38v-2q0-3.37,3.37-3.37h5.41v2h-5.41a1.19,1.19,0,0,0-1.35,1.35v2A1.19,1.19,0,0,0,121.21,44.74Z" style="fill:#00aeef"/><path d="M137,46.77H131v-2H137a.68.68,0,0,0,0-1.35h-3.38a2.39,2.39,0,0,1-2.7-2.7,2.39,2.39,0,0,1,2.7-2.7h6.08v2h-6.08a.6.6,0,0,0-.68.68.6.6,0,0,0,.68.67H137a2.39,2.39,0,0,1,2.7,2.7A2.39,2.39,0,0,1,137,46.77Z" style="fill:#00aeef"/></svg>